<svg width="18" height="19" viewBox="0 0 18 19" fill="none" xmlns="http://www.w3.org/2000/svg">
<path d="M6.68526 15.8041C6.31696 15.8041 5.96368 15.9519 5.70328 16.2153C5.44271 16.4784 5.29638 16.8354 5.29638 17.2076C5.29638 17.5799 5.44271 17.9369 5.70328 18.2001C5.9637 18.4632 6.31697 18.6111 6.68526 18.6111C7.05372 18.6111 7.40701 18.4632 7.6674 18.2001C7.9278 17.9369 8.07415 17.5799 8.07415 17.2076C8.07415 16.8354 7.92782 16.4784 7.6674 16.2153C7.40699 15.9519 7.05371 15.8041 6.68526 15.8041ZM16.4075 12.997H5.29638C4.96559 12.997 4.65991 12.8188 4.49452 12.5293C4.32912 12.2398 4.32912 11.883 4.49452 11.5935C4.65991 11.304 4.96559 11.1258 5.29638 11.1258H13.1587C13.7618 11.1237 14.3482 10.9243 14.8296 10.5573C15.3113 10.1903 15.6622 9.6754 15.8298 9.08985L17.2977 3.89761C17.3775 3.61533 17.3217 3.31146 17.1467 3.07711C16.9717 2.84261 16.6981 2.70476 16.4075 2.70476H5.05473C4.86298 2.15947 4.50973 1.68737 4.04282 1.35245C3.57592 1.01754 3.01823 0.836311 2.44577 0.833344H1.5926C1.26181 0.833344 0.95613 1.01176 0.790734 1.30124C0.625338 1.59072 0.625338 1.94738 0.790734 2.23687C0.95613 2.52636 1.2618 2.70476 1.5926 2.70476H2.44577C2.64666 2.70539 2.84213 2.77196 3.00255 2.89415C3.16299 3.01649 3.28002 3.18801 3.33597 3.38318L3.47998 3.8929L3.48013 3.8976L4.99921 9.27029C4.04763 9.37367 3.21585 9.96483 2.79764 10.8349C2.37958 11.7048 2.43398 12.731 2.94179 13.5508C3.44961 14.3705 4.33921 14.8684 5.29623 14.8684H16.4073C16.7381 14.8684 17.0438 14.69 17.2092 14.4005C17.3746 14.1111 17.3746 13.7544 17.2092 13.4649C17.0438 13.1754 16.7381 12.997 16.4073 12.997L16.4075 12.997ZM15.1801 4.57587L14.0493 8.57528V8.57543C13.9935 8.77061 13.8764 8.94245 13.7159 9.06478C13.5553 9.18712 13.3598 9.25369 13.1586 9.25432H6.92093L6.68485 8.41959L5.5987 4.57585L15.1801 4.57587ZM14.0927 15.8041C13.7244 15.8041 13.3711 15.9519 13.1106 16.2153C12.8501 16.4784 12.7038 16.8354 12.7038 17.2076C12.7038 17.5799 12.8501 17.9369 13.1106 18.2001C13.3711 18.4632 13.7244 18.6111 14.0927 18.6111C14.461 18.6111 14.8143 18.4632 15.0748 18.2001C15.3353 17.9369 15.4816 17.5799 15.4816 17.2076C15.4816 16.8354 15.3353 16.4784 15.0748 16.2153C14.8143 15.9519 14.461 15.8041 14.0927 15.8041Z" fill="white"/>
</svg>
